<?xml version="1.0" encoding="utf-8"?>
<!-- Generator: Adobe Illustrator 24.2.3, SVG Export Plug-In . SVG Version: 6.00 Build 0)  -->
<svg version="1.1" id="Layer_1" xmlns="http://www.w3.org/2000/svg" xmlns:xlink="http://www.w3.org/1999/xlink" x="0px" y="0px"
	 viewBox="0 0 490.4 52.9" style="enable-background:new 0 0 490.4 52.9;" xml:space="preserve">
<style type="text/css">
	.st0{fill:#D81F26;}
	.st1{fill:#5D5E5E;}
</style>
<path class="st0" d="M295.6,5c-4.6-0.2-9,1.8-11.8,5.4c-2.1,3-3.2,6.5-3.2,10.1v11.8c-0.1,3.6,1.1,7.2,3.2,10.1
	c2.8,3.6,7.2,5.6,11.8,5.4h0.2c4.5,0.1,8.8-1.9,11.6-5.4c2.1-2.9,3.2-6.5,3.2-10.1V20.6c0.1-3.6-1.1-7.2-3.2-10.1
	C304.6,6.8,300.2,4.8,295.6,5 M303.4,32.3c0,2.1-0.6,4.1-1.7,5.8c-1.2,1.5-2.7,2.5-6.1,2.6s-4.9-1.1-6.1-2.6
	c-1.2-1.7-1.8-3.7-1.7-5.8V20.6c-0.1-2.1,0.5-4.1,1.7-5.8c1.2-1.5,2.7-2.5,6.1-2.6s4.9,1.1,6.1,2.6c1.2,1.7,1.8,3.7,1.7,5.8V32.3z"
	/>
<path class="st0" d="M356.6,5c-4.6-0.2-9,1.8-11.8,5.4c-2.1,2.9-3.2,6.5-3.2,10.1v11.8c-0.1,3.6,1.1,7.2,3.2,10.1
	c2.8,3.6,7.2,5.6,11.8,5.4h0.2c4.5,0.1,8.8-1.9,11.6-5.4c2.1-3,3.2-6.5,3.2-10.1V20.6c0-3.6-1.1-7.2-3.2-10.1
	C365.5,6.8,361.1,4.8,356.6,5 M364.4,32.3c0.1,2.1-0.6,4.1-1.7,5.8c-1.2,1.5-2.7,2.5-6.1,2.6s-4.9-1.1-6.1-2.6
	c-1.2-1.7-1.8-3.7-1.7-5.8V20.6c0-2.1,0.6-4.1,1.7-5.8c1.2-1.5,2.7-2.5,6.1-2.6l0,0c3.4,0,4.9,1.1,6.1,2.6c1.2,1.7,1.8,3.7,1.7,5.8
	V32.3z"/>
<polygon class="st0" points="256.4,30 245.5,5.5 238.7,5.5 238.7,47.6 245.5,47.6 245.5,25.3 253.3,42.1 256.4,42.1 259.5,42.1 
	267.3,25.3 267.3,47.6 274.2,47.6 274.2,5.5 267.3,5.5 "/>
<polygon class="st0" points="27,28.4 21,14.8 17.1,14.8 17.1,38.2 21,38.2 21,25.8 25.3,35.2 27,35.2 28.8,35.2 33.1,25.8 
	33.1,38.2 36.9,38.2 36.9,14.8 33.1,14.8 "/>
<polygon class="st0" points="322.5,5.5 311.3,5.5 311.3,12.5 322.5,12.5 322.5,47.6 329.8,47.6 329.8,12.5 341.1,12.5 341.1,5.5 
	329.8,5.5 "/>
<path class="st0" d="M399.8,29.2c4.5-2,7.3-6.5,7.2-11.4c0-6.4-4.4-12.3-12.2-12.3H378v42.1h7.4V30.1h6.3l8,17.5h9.1L399.8,29.2z
	 M385.4,22.9V12.7h9.1c2.7,0,4.9,2.1,4.9,4.8c0,0.1,0,0.2,0,0.3c0.1,2.7-1.9,5-4.6,5.1c-0.1,0-0.2,0-0.3,0H385.4z"/>
<path class="st1" d="M26.7,3C13.7,3,3.1,13.5,3.1,26.5S13.6,50,26.6,50s23.5-10.5,23.5-23.5l0,0C50.2,13.5,39.6,3,26.7,3 M26.7,44
	C17,44,9.2,36.2,9.2,26.5S17,9.1,26.7,9.1c9.6,0,17.4,7.8,17.4,17.4C44.1,36.2,36.3,44,26.7,44L26.7,44"/>
<polygon class="st1" points="76.3,31.7 61,5.5 54.2,5.5 54.2,47.6 61,47.6 61,21.6 76.3,47.6 83.2,47.6 83.2,5.5 76.3,5.5 "/>
<rect x="90.2" y="5.5" class="st1" width="6.9" height="42.1"/>
<polygon class="st1" points="103.9,5.5 103.9,47.6 110.8,47.6 128.6,47.6 128.6,40.2 110.8,40.2 110.8,30 126.3,30 126.3,22.5 
	110.8,22.5 110.8,12.9 128.6,12.9 128.6,5.5 110.8,5.5 "/>
<path class="st1" d="M153.5,5.5v26.9c0.1,2.1-0.5,4.2-1.7,6c-0.5,0.8-1.2,1.4-2.1,1.8c-2.2,1-4.8,1-7,0c-1.3-0.7-2.3-1.8-2.8-3.1
	c-0.6-1.5-1-3.1-0.9-4.8V5.5h-6.6v26.9c-0.1,3.5,0.9,7,2.9,9.9c1.2,1.6,2.7,3,4.4,3.9c2,1,4.3,1.5,6.6,1.5l0,0
	c2.3,0,4.5-0.5,6.5-1.5c2.6-1.4,4.7-3.6,5.8-6.3c1-2.4,1.5-4.9,1.5-7.5V5.5H153.5z"/>
<polygon class="st1" points="198.6,5.5 192.9,30.6 186.9,5.5 184.1,5.5 181.4,5.5 175.3,30.6 169.6,5.5 161.8,5.5 171.2,47.6 
	178,47.6 184.1,22.1 190.2,47.6 197,47.6 206.4,5.5 "/>
<path class="st1" d="M219.9,22.2c-4.5-0.6-6.9-1.2-6.9-5.5s8.6-6.4,14.7-0.2l4-7c0,0-4.3-4.4-12.5-4.4s-13,5.7-13,12.6
	s4.8,11.3,12,12.4s7.9,2.1,7.9,4.8c0,3.6-2.3,5.5-7.3,5.5s-9.7-4.7-9.7-4.7l-4.2,6.4c0,0,5.8,5.9,13.9,5.9s14.3-5,14.3-13.3
	S227.4,23.3,219.9,22.2"/>
<rect x="414.9" y="43.5" class="st1" width="4.5" height="5"/>
<polygon class="st1" points="447.3,35.3 430.8,5.5 424.6,5.5 424.6,47.6 430.8,47.6 430.8,19.4 447.3,47.6 453.7,47.6 453.7,5.5 
	447.3,5.5 "/>
<polygon class="st1" points="467.2,41.4 467.2,5.5 461.1,5.5 461.1,47.6 467.2,47.6 485.8,47.6 485.8,41.4 "/>
</svg>
